<?xml version="1.0" encoding="UTF-8"?>
<svg width="2194px" height="1954px" viewBox="0 0 2194 1954" version="1.1" xmlns="http://www.w3.org/2000/svg" xmlns:xlink="http://www.w3.org/1999/xlink">
    <title>react-2 2</title>
    <defs>
        <linearGradient x1="67.2674847%" y1="6.4777302%" x2="38.0732495%" y2="89.6532699%" id="linearGradient-1">
            <stop stop-color="#6DDFF5" offset="0%"></stop>
            <stop stop-color="#3141EF" offset="100%"></stop>
        </linearGradient>
        <linearGradient x1="69.9594055%" y1="9.88792381e-15%" x2="36.9993353%" y2="100%" id="linearGradient-2">
            <stop stop-color="#6DDFF5" offset="0%"></stop>
            <stop stop-color="#3141EF" offset="100%"></stop>
        </linearGradient>
    </defs>
    <g id="Page-1" stroke="none" stroke-width="1" fill="none" fill-rule="evenodd">
        <g id="react-2-2" transform="translate(0.000000, -0.000000)">
            <g id="react-2" fill="url(#linearGradient-1)" fill-rule="nonzero">
                <path d="M2194,977.14839 C2194,831.805952 2011.98655,694.066042 1732.92907,608.649409 C1797.32695,324.225438 1768.70567,97.9384427 1642.59315,25.4908276 C1613.52466,8.49694252 1579.53689,0.447207501 1542.41867,0.447207501 L1542.41867,100.17448 C1562.99022,100.17448 1579.53689,104.199348 1593.40033,111.801875 C1654.22055,146.68406 1680.60579,279.504688 1660.03424,450.337954 C1655.11496,492.375459 1647.06523,536.649001 1637.22666,581.816959 C1549.57399,560.350999 1453.87159,543.804321 1353.2499,533.071341 C1292.87689,450.337954 1230.26784,375.207093 1167.21158,309.467591 C1313.00122,173.963718 1449.84672,99.7272727 1542.86588,99.7272727 L1542.86588,0 C1419.88382,0 1258.88912,87.6526702 1096.10558,239.703221 C933.322055,88.5470852 772.327354,1.78883 649.345291,1.78883 L649.345291,101.516103 C741.917244,101.516103 879.209947,175.30534 1024.99959,309.914798 C962.390542,375.654301 899.781492,450.337954 840.302894,533.071341 C739.233999,543.804321 643.531594,560.350999 555.878924,582.264166 C545.593151,537.543416 537.990624,494.164289 532.624134,452.573991 C511.605381,281.740726 537.543416,148.920098 597.916429,113.590705 C611.332654,105.54097 628.773746,101.96331 649.345291,101.96331 L649.345291,2.23603751 C611.779861,2.23603751 577.792091,10.2857725 548.276396,27.2796576 C422.611088,99.7272727 394.437016,325.567061 459.282104,609.096616 C181.119038,694.960457 0,832.253159 0,977.14839 C0,1122.49083 182.013453,1260.23074 461.070934,1345.64737 C396.673053,1630.07134 425.294333,1856.35834 551.406849,1928.80595 C580.475336,1945.79984 614.463106,1953.84957 652.028536,1953.84957 C775.010599,1953.84957 936.0053,1866.1969 1098.78883,1714.14635 C1261.57236,1865.30249 1422.56706,1952.06074 1545.54912,1952.06074 C1583.11455,1952.06074 1617.10232,1944.01101 1646.61802,1927.01712 C1772.28333,1854.56951 1800.4574,1628.72972 1735.61231,1345.20016 C2012.88096,1259.78353 2194,1122.04362 2194,977.14839 L2194,977.14839 Z M1611.73583,678.860987 C1595.18916,736.550754 1574.61761,796.029352 1551.36282,855.507949 C1533.02731,819.731349 1513.79739,783.954749 1492.77864,748.178149 C1472.20709,712.401549 1450.29393,677.519364 1428.38076,643.531594 C1491.88422,652.922951 1553.15165,664.550347 1611.73583,678.860987 Z M1406.9148,1155.13698 C1372.03261,1215.50999 1336.25601,1272.75255 1299.13779,1325.97024 C1232.50387,1331.78394 1164.97554,1334.91439 1097,1334.91439 C1029.47167,1334.91439 961.943335,1331.78394 895.756625,1326.41745 C858.638402,1273.19976 822.414594,1216.4044 787.532409,1156.4786 C753.544639,1097.89442 722.687322,1038.41582 694.513249,978.490012 C722.240114,918.564207 753.544639,858.638402 787.085202,800.054219 C821.967387,739.681207 857.743987,682.438647 894.86221,629.220954 C961.496127,623.407256 1029.02446,620.276804 1097,620.276804 C1164.52833,620.276804 1232.05667,623.407256 1298.24338,628.773746 C1335.3616,681.991439 1371.58541,738.786792 1406.46759,798.712597 C1440.45536,857.296779 1471.31268,916.775377 1499.48675,976.701182 C1471.31268,1036.62699 1440.45536,1096.55279 1406.9148,1155.13698 Z M1551.36282,1097 C1575.51203,1156.92581 1596.08357,1216.85161 1613.07746,1274.98859 C1554.49327,1289.29923 1492.77864,1301.37383 1428.82797,1310.76519 C1450.74113,1276.33021 1472.6543,1241.00082 1493.22585,1204.77701 C1513.79739,1169.00041 1533.02731,1132.7766 1551.36282,1097 Z M1097.89442,1574.1704 C1056.30412,1531.23848 1014.71382,1483.38728 973.57073,1431.064 C1013.8194,1432.85283 1054.96249,1434.19446 1096.55279,1434.19446 C1138.5903,1434.19446 1180.1806,1433.30004 1220.87648,1431.064 C1180.6278,1483.38728 1139.03751,1531.23848 1097.89442,1574.1704 Z M765.172034,1310.76519 C701.668569,1301.37383 640.401141,1289.74643 581.816959,1275.43579 C598.363636,1217.74603 618.935181,1158.26743 642.189971,1098.78883 C660.525479,1134.56543 679.755402,1170.34203 700.774154,1206.11863 C721.792907,1241.89523 743.258867,1276.77742 765.172034,1310.76519 Z M1095.65838,380.126376 C1137.24868,423.058296 1178.83897,470.909499 1219.98206,523.232776 C1179.73339,521.443946 1138.5903,520.102324 1097,520.102324 C1054.96249,520.102324 1013.3722,520.996739 972.676315,523.232776 C1012.92499,470.909499 1054.51529,423.058296 1095.65838,380.126376 Z M764.724827,643.531594 C742.811659,677.966572 720.898492,713.295964 700.326947,749.519772 C679.755402,785.296372 660.525479,821.072972 642.189971,856.849572 C618.040766,796.923767 597.469221,736.997962 580.475336,678.860987 C639.059519,664.997554 700.774154,652.922951 764.724827,643.531594 Z M360.002038,1203.43539 C201.690583,1135.90705 99.2800652,1047.35997 99.2800652,977.14839 C99.2800652,906.936812 201.690583,817.942519 360.002038,750.861394 C398.461883,734.314717 440.499389,719.556869 483.878516,705.693437 C509.369344,793.346107 542.909906,884.576437 584.500204,978.042805 C543.357114,1071.06196 510.263759,1161.84509 485.220139,1249.05055 C440.946596,1235.18712 398.909091,1219.98206 360.002038,1203.43539 Z M600.599674,1843.4949 C539.779454,1808.61272 513.394211,1675.79209 533.965756,1504.95883 C538.885039,1462.92132 546.934774,1418.64778 556.773339,1373.47982 C644.426009,1394.94578 740.128414,1411.49246 840.750102,1422.22544 C901.123115,1504.95883 963.732165,1580.08969 1026.78842,1645.82919 C880.998777,1781.33306 744.153282,1855.56951 651.134121,1855.56951 C631.009784,1855.1223 614.015899,1851.09743 600.599674,1843.4949 L600.599674,1843.4949 Z M1661.37587,1503.72279 C1682.39462,1674.55605 1656.45658,1807.37668 1596.08357,1842.70607 C1582.66735,1850.75581 1565.22625,1854.33347 1544.65471,1854.33347 C1452.08276,1854.33347 1314.79005,1780.54423 1169.00041,1645.93477 C1231.60946,1580.19527 1294.21851,1505.51162 1353.69711,1422.77823 C1454.766,1412.04525 1550.46841,1395.49857 1638.12108,1373.58541 C1648.40685,1418.75336 1656.45658,1462.13249 1661.37587,1503.72279 L1661.37587,1503.72279 Z M1833.55075,1203.43539 C1795.09091,1219.98206 1753.0534,1234.73991 1709.67428,1248.60334 C1684.18345,1160.95067 1650.64289,1069.72034 1609.05259,976.253975 C1650.19568,883.234815 1683.28903,792.451692 1708.33265,705.246229 C1752.6062,719.109662 1794.6437,734.314717 1833.99796,750.861394 C1992.30942,818.389727 2094.71993,906.936812 2094.71993,977.14839 C2094.27273,1047.35997 1991.86221,1136.35426 1833.55075,1203.43539 L1833.55075,1203.43539 Z" id="Shape"></path>
            </g>
            <g id="swift-15" transform="translate(895.000000, 774.000000)">
                <path d="M341.417227,330.818625 C339.994655,328.606848 338.41402,326.395071 336.675321,324.341279 C332.723732,319.601757 328.13989,315.494171 323.081857,312.018522 C316.759316,307.752952 309.33033,305.067223 301.74328,304.751255 C296.36912,304.435287 290.99496,305.383191 285.936927,307.279 C280.878894,309.016825 275.978925,311.54457 271.237019,314.072315 C265.704795,316.916028 260.172572,319.759741 254.324221,322.129502 C247.369426,324.973215 240.098503,327.184992 232.669517,328.764832 C223.343769,330.502657 213.859957,331.134593 204.534209,330.976609 C187.621411,330.660641 170.708613,328.132896 154.586133,323.393374 C140.360415,319.127805 126.766952,313.282394 113.963806,305.857143 C102.741295,299.379797 92.309102,291.954546 82.5091631,283.581391 C74.447923,276.630092 67.0189371,269.204841 60.0641417,261.305638 C55.3222358,255.776196 50.7383934,249.930786 46.4706781,243.927391 C44.7319792,241.55763 43.1513439,239.029885 41.7287721,236.50214 L0,191.476683 L0,89.576963 C0,40.1279517 39.9900733,0 89.4639585,0 L169.286042,0 L228.401802,60.0339434 C361.807422,150.716795 318.656078,250.720706 318.656078,250.720706 C318.656078,250.720706 356.591326,293.376403 341.417227,330.818625 Z" id="Path" fill-rule="nonzero"></path>
                <circle id="Oval" stroke="#979797" fill="url(#linearGradient-2)" cx="210" cy="210" r="209.5"></circle>
                <path d="M239.048326,59 C360.367673,150.036735 321.125752,250.430904 321.125752,250.430904 C321.125752,250.430904 355.624144,293.411662 341.681044,331 C341.681044,331 327.450457,304.672303 303.589069,304.672303 C280.590141,304.672303 267.07827,331 220.792927,331 C117.728979,331 69,235.998251 69,235.998251 C161.858173,303.403499 225.248969,255.664723 225.248969,255.664723 C183.419668,228.861224 94.4425644,100.711953 94.4425644,100.711953 C171.920204,173.509621 205.412394,192.700292 205.412394,192.700292 C185.432075,174.461224 129.372187,85.3276968 129.372187,85.3276968 C174.220097,135.445481 263.340944,205.388338 263.340944,205.388338 C288.639765,127.991254 239.048326,59 239.048326,59 Z" id="Path" fill="#FFFFFF" fill-rule="nonzero"></path>
            </g>
        </g>
    </g>
</svg>